<svg width="80" height="19" viewBox="0 0 80 19" fill="none" xmlns="http://www.w3.org/2000/svg">
<path opacity="0.6" d="M80 18.7756L71.5542 -0.00585938H67.7446L75.7876 18.7756H80Z" fill="#D8CFCF"/>
<path opacity="0.6" d="M50.3432 7.43945H55.6218L53.9579 11.2427H48.6001L50.3432 7.43945Z" fill="#D8CFCF"/>
<path d="M59.2666 18.7775L67.7113 -0.00390625H71.5224L63.479 18.7775H59.2666Z" fill="#D8CFCF"/>
<path d="M23.0771 18.7775V-0.00390625H30.4019C36.3046 -0.00390625 40.3829 4.04752 40.3829 9.33315V9.38681C40.3829 14.6724 36.3046 18.7775 30.4019 18.7775H23.0771ZM23.0771 15.0481H30.4019C33.7826 15.0481 36.0632 12.7675 36.0632 9.44047V9.38681C36.0632 6.05981 33.7826 3.72555 30.4019 3.72555H23.0771V15.0481Z" fill="#D8CFCF"/>
<path d="M57.4365 18.7736L59.0303 15.0442V-0.0078125H51.7055C45.8028 -0.0078125 41.7245 4.04361 41.7245 9.32924V9.38291C41.7245 14.6685 45.8028 18.7736 51.7055 18.7736H57.4365ZM59.0303 15.0442H51.7055C48.3249 15.0442 46.0443 12.7636 46.0443 9.43657V9.38291C46.0443 6.05591 48.3249 3.72164 51.7055 3.72164H59.0303V15.0442Z" fill="#D8CFCF"/>
<path d="M0 18.7756V-0.00585938H4.13192V18.7756H0Z" fill="#D8CFCF"/>
<path d="M17.0669 18.7756V-0.00585938H21.1988V18.7756H17.0669Z" fill="#D8CFCF"/>
<g opacity="0.6">
<path fill-rule="evenodd" clip-rule="evenodd" d="M17.0668 12.9292L4.13184 -0.00585938V5.83755L17.0659 18.7716L17.0668 18.7707V12.9292Z" fill="#D8CFCF"/>
</g>
</svg>
